<mxfile host="app.diagrams.net" modified="2020-07-28T06:43:57.146Z" agent="5.0 (Macintosh; Intel Mac OS X 10_15_4) AppleWebKit/605.1.15 (KHTML, like Gecko) Version/13.1 Safari/605.1.15" etag="JCZAuleCLKBakNY-Yn0D" version="13.5.3" type="github">
  <diagram id="0d7cefc2-ccd6-e077-73ed-a8e48b0cddf6" name="Page-1">
    <mxGraphModel dx="1965" dy="1348" grid="1" gridSize="10" guides="1" tooltips="1" connect="1" arrows="1" fold="1" page="1" pageScale="1" pageWidth="1169" pageHeight="827" background="#ffffff" math="0" shadow="0">
      <root>
        <mxCell id="0" />
        <mxCell id="1" parent="0" />
        <mxCell id="8d3R_6_OqAqjU-Xcsxzt-114" value="&lt;font&gt;&lt;br&gt;&lt;br&gt;&lt;br&gt;&lt;br&gt;&lt;br&gt;&lt;br&gt;&lt;br&gt;&lt;br&gt;&lt;br&gt;&lt;br&gt;&lt;br&gt;&lt;br&gt;&lt;br&gt;&lt;br&gt;&lt;br&gt;&lt;br&gt;&lt;br&gt;&lt;br&gt;&lt;br&gt;&lt;br&gt;&lt;br&gt;&lt;br&gt;&lt;br&gt;&lt;br&gt;&lt;br&gt;&lt;br&gt;&lt;br&gt;&lt;br&gt;&lt;br&gt;&lt;br&gt;&lt;font style=&quot;font-size: 32px&quot;&gt;Windows 10 x64&lt;/font&gt;&lt;/font&gt;" style="rounded=1;whiteSpace=wrap;html=1;fillColor=#dae8fc;strokeColor=#6c8ebf;" vertex="1" parent="1">
          <mxGeometry x="20" width="580" height="470" as="geometry" />
        </mxCell>
        <mxCell id="8d3R_6_OqAqjU-Xcsxzt-123" value="1" style="edgeStyle=none;rounded=0;orthogonalLoop=1;jettySize=auto;html=1;exitX=1;exitY=0.25;exitDx=0;exitDy=0;entryX=0;entryY=0.25;entryDx=0;entryDy=0;strokeWidth=5;" edge="1" parent="1" source="8d3R_6_OqAqjU-Xcsxzt-115" target="8d3R_6_OqAqjU-Xcsxzt-119">
          <mxGeometry relative="1" as="geometry" />
        </mxCell>
        <mxCell id="8d3R_6_OqAqjU-Xcsxzt-126" value="&lt;font style=&quot;font-size: 32px&quot;&gt;1&lt;/font&gt;" style="edgeLabel;html=1;align=center;verticalAlign=middle;resizable=0;points=[];" vertex="1" connectable="0" parent="8d3R_6_OqAqjU-Xcsxzt-123">
          <mxGeometry x="-0.0289" y="3" relative="1" as="geometry">
            <mxPoint y="1" as="offset" />
          </mxGeometry>
        </mxCell>
        <mxCell id="8d3R_6_OqAqjU-Xcsxzt-115" value="&lt;font style=&quot;font-size: 32px&quot;&gt;&lt;br&gt;&lt;br&gt;&lt;br&gt;&lt;br&gt;&lt;br&gt;&lt;br&gt;&lt;br&gt;tired.team.exe&lt;/font&gt;" style="rounded=1;whiteSpace=wrap;html=1;fillColor=#d5e8d4;strokeColor=#82b366;" vertex="1" parent="1">
          <mxGeometry x="30" y="30" width="520" height="320" as="geometry" />
        </mxCell>
        <mxCell id="8d3R_6_OqAqjU-Xcsxzt-117" value="&lt;font style=&quot;font-size: 32px&quot;&gt;&lt;br&gt;&lt;br&gt;&lt;br&gt;&lt;br&gt;&lt;br&gt;VirtualiAlloc&lt;/font&gt;" style="rounded=1;whiteSpace=wrap;html=1;fillColor=#dae8fc;strokeColor=#6c8ebf;" vertex="1" parent="1">
          <mxGeometry x="40" y="40" width="470" height="240" as="geometry" />
        </mxCell>
        <mxCell id="8d3R_6_OqAqjU-Xcsxzt-125" style="edgeStyle=none;rounded=0;orthogonalLoop=1;jettySize=auto;html=1;exitX=1;exitY=1;exitDx=0;exitDy=0;entryX=0;entryY=0.5;entryDx=0;entryDy=0;strokeWidth=5;" edge="1" parent="1" source="8d3R_6_OqAqjU-Xcsxzt-118" target="8d3R_6_OqAqjU-Xcsxzt-120">
          <mxGeometry relative="1" as="geometry" />
        </mxCell>
        <mxCell id="8d3R_6_OqAqjU-Xcsxzt-127" value="&lt;font style=&quot;font-size: 32px&quot;&gt;3&lt;/font&gt;" style="edgeLabel;html=1;align=center;verticalAlign=middle;resizable=0;points=[];" vertex="1" connectable="0" parent="8d3R_6_OqAqjU-Xcsxzt-125">
          <mxGeometry x="0.0365" y="-2" relative="1" as="geometry">
            <mxPoint as="offset" />
          </mxGeometry>
        </mxCell>
        <mxCell id="8d3R_6_OqAqjU-Xcsxzt-118" value="&lt;font style=&quot;font-size: 32px&quot;&gt;shell_reverse_tcp&lt;/font&gt;" style="rounded=1;whiteSpace=wrap;html=1;fillColor=#f8cecc;strokeColor=#b85450;" vertex="1" parent="1">
          <mxGeometry x="50" y="50" width="410" height="140" as="geometry" />
        </mxCell>
        <mxCell id="8d3R_6_OqAqjU-Xcsxzt-124" value="&lt;font style=&quot;font-size: 32px&quot;&gt;2&lt;/font&gt;" style="edgeStyle=none;rounded=0;orthogonalLoop=1;jettySize=auto;html=1;exitX=0;exitY=0.5;exitDx=0;exitDy=0;entryX=1;entryY=0.5;entryDx=0;entryDy=0;strokeWidth=5;" edge="1" parent="1" source="8d3R_6_OqAqjU-Xcsxzt-119" target="8d3R_6_OqAqjU-Xcsxzt-117">
          <mxGeometry relative="1" as="geometry" />
        </mxCell>
        <mxCell id="8d3R_6_OqAqjU-Xcsxzt-119" value="&lt;font style=&quot;font-size: 32px&quot;&gt;python_server.py&lt;br&gt;(192.168.88.132, 4433)&lt;br&gt;&lt;/font&gt;" style="rounded=1;whiteSpace=wrap;html=1;fillColor=#f8cecc;strokeColor=#b85450;" vertex="1" parent="1">
          <mxGeometry x="660" y="10" width="490" height="230" as="geometry" />
        </mxCell>
        <mxCell id="8d3R_6_OqAqjU-Xcsxzt-120" value="&lt;font style=&quot;font-size: 32px&quot;&gt;ncat -nvlp 443&lt;/font&gt;" style="rounded=1;whiteSpace=wrap;html=1;fillColor=#f8cecc;strokeColor=#b85450;" vertex="1" parent="1">
          <mxGeometry x="660" y="250" width="490" height="230" as="geometry" />
        </mxCell>
      </root>
    </mxGraphModel>
  </diagram>
</mxfile>
